<?xml version="1.0" encoding="utf-8"?>
<!-- Svg Vector Icons : http://www.onlinewebfonts.com/icon -->
<!DOCTYPE svg PUBLIC "-//W3C//DTD SVG 1.1//EN" "http://www.w3.org/Graphics/SVG/1.1/DTD/svg11.dtd">
<svg version="1.1" xmlns="http://www.w3.org/2000/svg" xmlns:xlink="http://www.w3.org/1999/xlink" x="0px" y="0px" viewBox="0 0 1000 1000" enable-background="new 0 0 1000 1000" xml:space="preserve">
<metadata> Svg Vector Icons : http://www.onlinewebfonts.com/icon </metadata>
<g><path d="M10,499.8C10.6,227.9,230.1,9.7,500.3,10C773,10.2,990.3,230.9,990,500.4C989.7,772.1,770.1,989.7,500.1,990C229.8,990.3,9.5,769.9,10,499.8z M926.5,500.1C927,265.3,736.1,73.7,500.3,73.5C265.1,73.3,74,262.6,73.6,499.4C73.3,734.7,262.8,925.8,500,926.3C735,926.8,926,735.7,926.5,500.1z"/><path d="M500,538.9c-9.3,8.5-18.4,16.9-27.5,25.2c-32.8,30.1-65.6,60.4-98.5,90.5c-12.9,11.8-29.7,11.1-39.6-1.4c-7.1-9.1-7.1-22.2,0.1-31.2c1.3-1.6,2.9-3.2,4.4-4.7c46.9-46.1,93.9-92.1,140.8-138c10.5-10.2,22.2-12.3,33.2-5.9c2.3,1.3,4.3,3,6.3,4.8c47.8,46.8,95.7,93.6,143.3,140.5c13.9,13.6,10.4,35-6.8,42.3c-10.9,4.6-20.7,2.1-29.2-5.9c-16-14.8-32.1-29.5-48.1-44.2c-25.2-23.1-50.3-46.3-75.5-69.4C502,540.6,501.1,540,500,538.9z"/><path d="M500,326.8c53.7,0,107.4,0,161.1,0c17,0,29.6,12.5,29.3,28.8c-0.2,14.6-11.9,26.7-26.5,27.7c-1,0.1-2,0-3,0c-107.2,0-214.4,0-321.7,0c-15.9,0-28.1-10.6-29.5-25.6c-1.5-16.5,11.3-30.8,28.2-30.9c26.2-0.2,52.6,0,78.8,0C444.5,326.8,472.3,326.8,500,326.8z"/></g>
</svg>